<svg viewBox="0 0 512 512" xmlns="http://www.w3.org/2000/svg" fill-rule="evenodd" clip-rule="evenodd" stroke-linejoin="round" stroke-miterlimit="2"><path d="M506 116v280c0 60.711-49.29 110-110 110H116C55.289 506 6 456.711 6 396V116C6 55.29 55.289 6 116 6h280c60.71 0 110 49.29 110 110z" fill="#f8ff2c"/><path d="M272.743 89.523l.058 121.724c.01 19.232-20.946 31.56-38.35 22.568L109.49 169.27c9.527-15.313 21.51-29.01 35.404-40.58l98.009 88.453c5.19 4.685 13.384-.398 11.245-6.978L216.135 93.294A175.286 175.286 0 01256 88.728c5.652 0 11.236.277 16.743.795zM238.826 422.44l-.058-121.105c-.01-19.232 20.945-31.56 38.35-22.568l125.008 64.563c-9.594 15.277-21.636 28.927-35.586 40.442l-97.875-88.333c-5.19-4.685-13.384.398-11.245 6.978l37.87 116.428a175.669 175.669 0 01-39.29 4.427c-5.795 0-11.532-.287-17.174-.832zM295.885 243.713l90.765-95.893a171.354 171.354 0 00-41.573-34.721l-66.27 122.361c-9.211 16.996 3.415 37.457 23.113 37.448l124.519-.056c.576-5.545.864-11.164.864-16.847 0-13.235-1.574-26.1-4.548-38.437l-119.731 37.124c-6.736 2.089-11.946-5.905-7.139-10.98zM85.504 239.72l124.154-.046c19.689-.009 32.315 20.443 23.114 37.448l-65.944 121.724a171.3 171.3 0 01-41.42-34.602l90.285-95.384c4.798-5.065-.403-13.059-7.148-10.97L89.352 294.848a164.196 164.196 0 01-4.654-38.853c0-5.49.278-10.914.806-16.275z" fill-rule="nonzero"/></svg>